<?xml version="1.0" encoding="UTF-8"?>
<svg width="24px" height="24px" viewBox="0 0 24 24" version="1.1" xmlns="http://www.w3.org/2000/svg" xmlns:xlink="http://www.w3.org/1999/xlink">
    <title>Trash</title>
    <g stroke="none" stroke-width="1" fill="none" fill-rule="evenodd">
        <g transform="translate(3.000000, 2.000000)" fill="#000000" fill-rule="nonzero">
            <path d="M14,0 L18,0 L18,2 L0,2 L0,0 L4,0 L4,-2.22044605e-16 L14,-2.22044605e-16 L14,0 Z M1,3 L17,3 L16,20 C16,20.5522847 15.5522847,21 15,21 L3,21 C2.44771525,21 2,20.5522847 2,20 L1,3 Z M13,7 L13,16 C13,16.5522847 12.5522847,17 12,17 C11.4477153,17 11,16.5522847 11,16 L11,7 C11,6.44771525 11.4477153,6 12,6 C12.5522847,6 13,6.44771525 13,7 Z M7,7 L7,16 C7,16.5522847 6.55228475,17 6,17 C5.44771525,17 5,16.5522847 5,16 L5,7 C5,6.44771525 5.44771525,6 6,6 C6.55228475,6 7,6.44771525 7,7 Z"></path>
        </g>
    </g>
</svg>